HIERARCHY
ROOT Hips
{
  OFFSET 1.44925e-005 102.336 -0.101585
  CHANNELS 6 Xposition Yposition Zposition Zrotation Xrotation Yrotation
  JOINT LeftUpLeg
  {
    OFFSET 8.9458 -8.66707 0.101652
    CHANNELS 3 Zrotation Xrotation Yrotation
    JOINT LeftLeg
    {
      OFFSET 0 -44.4227 1.3727
      CHANNELS 3 Zrotation Xrotation Yrotation
      JOINT LeftFoot
      {
        OFFSET -0.253549 -42.0924 -1.46059
        CHANNELS 3 Zrotation Xrotation Yrotation
        JOINT LeftToes
        {
          OFFSET -0.04 -4.41509 8.4991
          CHANNELS 3 Zrotation Xrotation Yrotation
          End Site
          {
            OFFSET 0.08 -0.047448 9.77979
          }
        }
      }
    }
  }
  JOINT Spine
  {
    OFFSET 0 11.8905 0
    CHANNELS 3 Zrotation Xrotation Yrotation
    JOINT Spine1
    {
      OFFSET 0 25.6574 0.127663
      CHANNELS 3 Zrotation Xrotation Yrotation
      JOINT RightShoulder
      {
        OFFSET -8.99 -0.362252 -0.22
        CHANNELS 3 Zrotation Xrotation Yrotation
        JOINT RightArm
        {
          OFFSET -10.2827 -0.00338 0.322123
          CHANNELS 3 Zrotation Xrotation Yrotation
          JOINT RightForeArm
          {
            OFFSET -26.364 0.099144 -1.42434
            CHANNELS 3 Zrotation Xrotation Yrotation
            JOINT RightHand
            {
              OFFSET -22.0324 0.085362 1.02216
              CHANNELS 3 Zrotation Xrotation Yrotation
              End Site
              {
                OFFSET -13.3284 -0.6 1.50291
              }
            }
          }
        }
      }
      JOINT LeftShoulder1
      {
        OFFSET 8.99 -0.362252 -0.22
        CHANNELS 3 Zrotation Xrotation Yrotation
        JOINT LeftArm
        {
          OFFSET 10.2827 -0.00337999 0.322123
          CHANNELS 3 Zrotation Xrotation Yrotation
          JOINT LeftForeArm
          {
            OFFSET 26.2597 0.099144 -1.42434
            CHANNELS 3 Zrotation Xrotation Yrotation
            JOINT LeftHand
            {
              OFFSET 22.0902 0.085362 1.02216
              CHANNELS 3 Zrotation Xrotation Yrotation
              End Site
              {
                OFFSET 13.419 -0.6 1.50291
              }
            }
          }
        }
      }
      JOINT Head
      {
        OFFSET 0 8.73416 0.011341
        CHANNELS 3 Zrotation Xrotation Yrotation
        End Site
        {
          OFFSET -0.29 12.7742 2.51395
        }
      }
    }
  }
  JOINT RightUpLeg
  {
    OFFSET -8.9458 -8.66707 0.101652
    CHANNELS 3 Zrotation Xrotation Yrotation
    JOINT RightLeg
    {
      OFFSET 0 -44.4227 1.3727
      CHANNELS 3 Zrotation Xrotation Yrotation
      JOINT RightFoot
      {
        OFFSET 0.253549 -42.0924 -1.46059
        CHANNELS 3 Zrotation Xrotation Yrotation
        JOINT RightToes
        {
          OFFSET 0.04 -4.41509 8.4991
          CHANNELS 3 Zrotation Xrotation Yrotation
          End Site
          {
            OFFSET -0.08 -0.137448 9.77979
          }
        }
      }
    }
  }
}
MOTION
Frames:	8
Frame Time:	0.0333333
190.702 103.144 5.96572 -3.6183 -0.415596 -90.7569 -1.26444 1.45274 1.94008 -0.174521 8.56901 19.5041 -1.78124 -10.8433 0.00494973 -1.31817e-009 8.7524e-006 -1.4812e-008 0.767674 9.28686 -0.619354 -0.925186 -5.54932 -0.393651 37.0833 1.72045 -0.0271114 40.0652 -20.7372 3.74156 7.22568 37.9484 8.9934 -10.8132 9.42697 0.0115671 -43.8837 3.59457 -3.62742 -28.3514 -13.4885 1.88545 -4.96828 36.7089 -13.8234 5.82328 9.61819 -0.917488 1.27223 -1.64413 -1.27239 -0.479975 1.33514 -4.3913 1.04694 9.52794 -12.9944 2.81055 -12.2159 -0.0796986 0.0462048 0.000530889 0.662642 
190.72 103.144 5.96572 -3.64861 -0.410206 -90.7254 -1.25379 1.46814 1.94009 -0.172044 8.57545 19.4808 -1.78195 -10.8396 0.00494967 -1.31817e-009 8.7524e-006 -1.4812e-008 0.759343 9.36027 -0.612612 -0.893402 -5.56884 -0.391532 37.088 1.72045 -0.0271114 40.0508 -20.9645 3.76476 7.30153 38.1039 8.82324 -10.9883 9.40909 0.123246 -43.9211 3.59733 -3.62743 -28.3042 -13.3143 1.88461 -4.93789 36.6154 -13.891 5.82328 9.61819 -0.917488 1.26807 -1.71079 -1.26731 -0.478069 1.36006 -4.39098 1.04955 9.52394 -13.0209 2.81057 -12.2071 -0.079696 0.0462048 0.000530889 0.662642 
190.764 103.144 5.96734 -3.68396 -0.40767 -90.7265 -1.25239 1.47315 1.9398 -0.171215 8.58442 19.4943 -1.77841 -10.8224 0.00494939 -1.31817e-009 8.7524e-006 -1.4812e-008 0.65993 9.43273 -0.559497 -0.711297 -5.52921 -0.367617 36.9847 1.72045 -0.0271114 40.0727 -21.284 3.82751 7.37267 38.4805 8.59793 -11.0573 9.3807 0.412185 -44.0661 3.6133 -3.62749 -28.1955 -13.1905 1.82549 -4.86854 36.6846 -13.9685 5.82328 9.61819 -0.917488 1.2612 -1.48118 -1.02403 -0.478321 1.35458 -4.38489 1.04626 9.55312 -13.0212 2.81041 -12.1973 -0.0796931 0.0462048 0.000530889 0.662642 
190.809 103.143 5.97437 -3.71023 -0.406881 -90.7734 -1.2639 1.46961 1.93824 -0.16737 8.59589 19.5418 -1.74859 -10.8094 0.00494917 -1.31817e-009 8.7524e-006 -1.4812e-008 0.527861 9.35222 -0.497636 -0.527264 -5.31401 -0.336433 36.965 1.72045 -0.0271114 39.999 -21.4471 3.93633 7.43998 38.687 8.43371 -10.9729 9.37976 0.471802 -44.1705 3.62288 -3.62471 -28.1315 -13.1367 1.71338 -4.82839 36.7762 -14.0031 5.82328 9.61819 -0.917488 1.21751 -1.38137 -0.986407 -0.479857 1.32615 -4.36464 1.02622 9.59841 -12.9945 2.81423 -12.1901 -0.0796909 0.0462048 0.000530889 0.662642 
190.837 103.143 5.98385 -3.71847 -0.401168 -90.7953 -1.27127 1.45271 1.93393 -0.160486 8.61582 19.5588 -1.70045 -10.8141 0.00494925 -1.31817e-009 8.7524e-006 -1.4812e-008 0.48725 9.17992 -0.501251 -0.528717 -5.05823 -0.341512 37.1365 1.72045 -0.0271114 39.81 -21.4512 4.05155 7.55628 38.5716 8.29439 -10.9204 9.40358 0.225821 -44.125 3.61209 -3.61176 -28.1352 -13.0161 1.67459 -4.84322 36.6657 -14.0177 5.82328 9.61819 -0.917488 1.22967 -1.71853 -1.24629 -0.480934 1.30359 -4.34914 1.01525 9.61934 -12.9925 2.83152 -12.1798 -0.0796878 0.0462048 0.000530889 0.662642 
190.854 103.143 5.99749 -3.7005 -0.392812 -90.7729 -1.27264 1.41136 1.92268 -0.154597 8.63603 19.544 -1.66999 -10.8215 0.00494937 -1.31817e-009 8.7524e-006 -1.4812e-008 0.540459 9.10504 -0.547105 -0.638203 -4.98888 -0.370281 37.2338 1.71907 -0.0271114 39.7367 -21.4638 4.1005 7.67081 38.44 8.16341 -10.9217 9.42056 0.0270019 -44.0753 3.60168 -3.59891 -28.0862 -12.926 1.7487 -4.87451 36.587 -14.0041 5.82328 9.61819 -0.917488 1.33614 -1.71133 -1.17935 -0.482212 1.2728 -4.35023 1.02432 9.62332 -13.0159 2.84446 -12.1656 -0.0796835 0.0462048 0.000530889 0.662642 
190.875 103.142 6.01726 -3.6794 -0.387602 -90.7699 -1.28104 1.36919 1.90609 -0.151443 8.64583 19.5579 -1.66983 -10.8158 0.00494928 -1.31817e-009 8.7524e-006 -1.4812e-008 0.582326 9.15646 -0.536232 -0.648234 -5.05883 -0.356041 37.0212 1.71158 -0.0271113 39.9239 -21.5731 4.06827 7.67847 38.5245 8.11828 -10.8821 9.42224 0.0292803 -44.1857 3.61264 -3.60353 -27.9359 -12.9944 1.78707 -4.93383 36.7705 -13.8998 5.82328 9.61819 -0.917488 1.3622 -1.3386 -0.899647 -0.484458 1.22721 -4.34982 1.02499 9.64148 -13.0157 2.84275 -12.151 -0.0796792 0.0462048 0.000530889 0.662642 
190.905 103.142 6.03984 -3.68775 -0.382349 -90.818 -1.29302 1.35855 1.90079 -0.153435 8.65241 19.6094 -1.67858 -10.805 0.0049491 -1.31817e-009 8.7524e-006 -1.4812e-008 0.557899 9.21543 -0.45033 -0.530993 -5.06543 -0.285824 36.6658 1.69917 -0.0271111 40.2092 -21.6871 4.01462 7.57645 38.6648 8.20545 -10.8577 9.4202 0.0666089 -44.3616 3.63168 -3.61394 -27.8151 -13.1068 1.69634 -5.10376 36.9263 -13.6785 5.82328 9.61819 -0.917488 1.09412 -1.93132 -1.60075 -0.485247 1.19981 -4.33641 1.00482 9.66557 -12.9773 2.84225 -12.1352 -0.0796744 0.0462048 0.000530889 0.662642 
